# xmcd CD database file
#
# Track frame offsets:
#	150
#	19657
#	38199
#	55229
#	68813
#	91543
#	114296
#	138046
#	156589
#	173671
#	187674
#	212072
#	233617
#	250670
#	269800
#	294481
#	319276
#
# Disc length: 4532 seconds
#
# Revision: 3
# Processed by: cddbd v1.5.2PL0 Copyright (c) Steve Scherf et al.
# Submitted via: CDex 1.70beta2
#
DISCID=e311b211
DTITLE=Rasmus Faber - ラスマス・フェイバー・プレゼンツ・プラチナ・ジャズ ～アニメ・スタンダード Vol.4～
DYEAR=2013
DGENRE=Jazz
TTITLE0=CHA‐LA HEAD‐CHA‐LA「ドラゴンボールZ」
TTITLE1=MOTTO☆派手にね！「かんなぎ」
TTITLE2=ミラクル・ガール「YAWARA！」
TTITLE3=妖怪人間ベム「妖怪人間ベム」
TTITLE4=Eternal Blaze「魔法少女リリカルなのはA’s」
TTITLE5=ラムのラブソング「うる星やつら」
TTITLE6=太陽曰く燃えよカオス「這いよれ！ニャル子さん」
TTITLE7=オリオンをなぞる「TIGER ＆ BUNNY」
TTITLE8=ムーンライト伝説「美少女戦士セーラームーン」
TTITLE9=Eternal Wind～ほほえみは光る風の中～「機動戦士ガンダムF91」
TTITLE10=Go！ Go！ Maniac「けいおん！！」
TTITLE11=I Do「攻殻機動隊STAND ALONE COMPLEX」
TTITLE12=Ready！！「THE IDOLM＠STER」
TTITLE13=ヒャダインのカカカタ☆カタオモイ－C「日常」
TTITLE14=ブルーウォーター「ふしぎの海のナディア」
TTITLE15=月の繭「∀ GUNDAM」
TTITLE16=空からこぼれたStory「名探偵ホームズ」
EXTD=YEAR: 2013
EXTT0=
EXTT1=
EXTT2=
EXTT3=
EXTT4=
EXTT5=
EXTT6=
EXTT7=
EXTT8=
EXTT9=
EXTT10=
EXTT11=
EXTT12=
EXTT13=
EXTT14=
EXTT15=
EXTT16=
PLAYORDER=
